<svg width="74" height="50" viewBox="0 0 74 50" fill="none" xmlns="http://www.w3.org/2000/svg">
<path d="M51.8369 1C53.0568 1.00003 54.1376 1.22043 55.0947 1.64453C56.0539 2.0696 56.8005 2.65196 57.3613 3.38477L72.1973 22.8291H72.1982C72.7559 23.5596 73 24.277 73 25C73 25.723 72.7559 26.4404 72.1982 27.1709H72.1973L57.3613 46.6152C56.8004 47.3499 56.0537 47.9334 55.0947 48.3584C54.1381 48.7823 53.0575 49.0017 51.8379 49H22.1631C20.9427 49 19.8617 48.78 18.9043 48.3574C17.9465 47.9346 17.2004 47.3522 16.6396 46.6162L16.6387 46.6152L1.80273 27.1709H1.80176C1.24408 26.4404 1 25.723 1 25C1 24.277 1.24408 23.5596 1.80176 22.8291H1.80273L16.6387 3.38477C17.1994 2.65038 17.9459 2.0686 18.9043 1.64551C19.7423 1.27558 20.675 1.05994 21.7129 1.01074L22.165 1H51.8369Z" fill="#9A3412" stroke="#7C2D12" stroke-width="2"/>
</svg>
